<svg xmlns="http://www.w3.org/2000/svg" xmlns:xlink="http://www.w3.org/1999/xlink" viewBox="0 0 24 24" fill="#F4F4F4">
  <path d="M5.0273438 3 A 1.0001 1.0001 0 0 0 4.1425781 3.4863281L1.1425781 8.4863281 A 1.0001 1.0001 0 0 0 1 9L1 20 A 1.0001 1.0001 0 0 0 2 21L17 21 A 1.0001 1.0001 0 0 0 17.800781 19.400391L5.8007812 3.4003906 A 1.0001 1.0001 0 0 0 5.0273438 3 z M 12.5 5 A 1.5 1.5 0 0 0 12.5 8 A 1.5 1.5 0 0 0 12.5 5 z M 5.0917969 5.7890625L8.6113281 10.482422L7.3164062 10.050781 A 1.0001 1.0001 0 0 0 7.0019531 10L7 10 A 1.0001 1.0001 0 0 0 6.5527344 10.105469L5.0722656 10.845703L3 9.4648438L3 9.2753906L5.0917969 5.7890625 z M 17 6 A 1 1 0 0 0 17 8 A 1 1 0 0 0 17 6 z M 15.773438 10.011719C15.522312 9.9912187 15.276063 9.99825 15.039062 10.03125C14.370062 10.12525 14.033594 10.888594 14.433594 11.433594C14.647594 11.725594 14.976641 12.055719 15.681641 12.011719C16.099641 11.985719 16.459219 12.282563 16.699219 12.601562C16.887219 12.852562 17 13.163 17 13.5C17 13.682 16.936297 13.846625 16.904297 14.015625C16.787297 14.630625 16.874781 14.986859 17.175781 15.255859C17.646781 15.584859 18.374063 15.588516 18.664062 14.978516C18.799538 14.694255 18.895636 14.386895 18.949219 14.066406C19.218175 14.124837 19.497127 14.221014 19.792969 14.412109C20.419969 14.818109 20.898422 15.467937 20.982422 16.210938C21.069422 16.979937 20.804125 17.683406 20.328125 18.191406C20.012125 18.528406 20.027781 19.060594 20.300781 19.433594C20.671781 19.939594 21.413938 19.972813 21.835938 19.507812C22.759937 18.489812 23.223578 17.050766 22.892578 15.509766C22.577578 14.046766 21.483984 12.829828 20.083984 12.298828C19.595263 12.113009 19.121574 12.029126 18.664062 12.011719C18.248587 11.143404 17.477414 10.454072 16.544922 10.162109C16.282422 10.080109 16.024563 10.032219 15.773438 10.011719 z" fill="#F4F4F4" />
</svg>