<?xml version="1.0" encoding="UTF-8" standalone="no"?>
<!DOCTYPE svg PUBLIC "-//W3C//DTD SVG 1.1//EN" "http://www.w3.org/Graphics/SVG/1.1/DTD/svg11.dtd">
<svg width="100%" height="100%" viewBox="0 0 662 267" version="1.1" xmlns="http://www.w3.org/2000/svg" xmlns:xlink="http://www.w3.org/1999/xlink" xml:space="preserve" xmlns:serif="http://www.serif.com/" style="fill-rule:evenodd;clip-rule:evenodd;stroke-linejoin:round;stroke-miterlimit:2;">
    <g id="CRYPTO-LOGOS" serif:id="CRYPTO LOGOS" transform="matrix(4.16667,0,0,4.16667,-4272.07,-2066.67)">
        <g transform="matrix(0.867121,0,0,0.867121,1119.66,495.694)">
            <g transform="matrix(0.973449,0,0,0.973449,0.995679,0.995679)">
                <circle cx="37.5" cy="37.5" r="37.661" style="fill:rgb(255,255,254);"/>
            </g>
            <path id="path22" d="M37.3,0.353C16.923,0.353 0.397,16.877 0.397,37.255C0.397,41.329 1.057,45.247 2.277,48.912L13.313,48.912L13.313,17.863L37.3,41.85L61.287,17.863L61.287,48.912L72.324,48.912C73.544,45.247 74.204,41.329 74.204,37.255C74.204,16.877 57.678,0.353 37.3,0.353" style="fill:rgb(144,180,206);fill-rule:nonzero;"/>
            <path id="path26" d="M21.316,36.896L21.316,56.433L5.766,56.433C12.244,67.061 23.944,74.159 37.299,74.159C50.654,74.159 62.355,67.061 68.832,56.433L53.283,56.433L53.283,36.896L37.299,52.88L21.316,36.896Z" style="fill:rgb(144,180,206);fill-rule:nonzero;"/>
        </g>
        <g transform="matrix(0.0256,0,0,0.0256,1073,496)">
            <path d="M2500,1249.99C2500,1940.35 1940.37,2500 1250.02,2500C559.656,2500 0.015,1940.35 0.015,1249.99C0.015,559.641 559.656,0 1250.02,0C1940.36,0 2500,559.641 2500,1249.99" style="fill:rgb(9,64,103);fill-rule:nonzero;"/>
            <path d="M1176.96,1583.92L1258.15,1278.2L1450.37,1207.97L1498.18,1028.3L1496.55,1023.85L1307.33,1092.97L1443.66,579.633L1057.03,579.633L878.739,1249.55L729.88,1303.93L680.694,1489.16L829.438,1434.83L724.36,1829.64L1753.36,1829.64L1819.32,1583.92L1176.96,1583.92Z" style="fill:white;fill-rule:nonzero;"/>
        </g>
        <g id="Bitcoin" transform="matrix(1,0,0,1,1057.3,528)">
            <g transform="matrix(1,0,0,1,-32,-32)">
                <clipPath id="_clip1">
                    <rect x="0" y="0" width="64" height="64"/>
                </clipPath>
                <g clip-path="url(#_clip1)">
                    <g transform="matrix(1,0,0,1,0.00630876,-0.00301984)">
                        <g transform="matrix(1,0,0,1,-0.000439996,-3.39866e-05)">
                            <path d="M63.033,39.744C58.759,56.887 41.396,67.32 24.251,63.045C7.113,58.771 -3.32,41.407 0.956,24.265C5.228,7.12 22.591,-3.314 39.731,0.96C56.875,5.234 67.307,22.6 63.033,39.744Z" style="fill:rgb(239,69,101);fill-rule:nonzero;"/>
                        </g>
                        <path d="M46.103,27.444C46.74,23.186 43.498,20.897 39.065,19.37L40.503,13.602L36.992,12.727L35.592,18.343C34.669,18.113 33.721,17.896 32.779,17.681L34.189,12.028L30.68,11.153L29.241,16.919C28.477,16.745 27.727,16.573 26.999,16.392L27.003,16.374L22.161,15.165L21.227,18.915C21.227,18.915 23.832,19.512 23.777,19.549C25.199,19.904 25.456,20.845 25.413,21.591L23.775,28.162C23.873,28.187 24,28.223 24.14,28.279C24.023,28.25 23.898,28.218 23.769,28.187L21.473,37.392C21.299,37.824 20.858,38.472 19.864,38.226C19.899,38.277 17.312,37.589 17.312,37.589L15.569,41.608L20.138,42.747C20.988,42.96 21.821,43.183 22.641,43.393L21.188,49.227L24.695,50.102L26.134,44.33C27.092,44.59 28.022,44.83 28.932,45.056L27.498,50.801L31.009,51.676L32.462,45.853C38.449,46.986 42.951,46.529 44.846,41.114C46.373,36.754 44.77,34.239 41.62,32.599C43.914,32.07 45.642,30.561 46.103,27.444ZM38.081,38.693C36.996,43.053 29.655,40.696 27.275,40.105L29.203,32.376C31.583,32.97 39.215,34.146 38.081,38.693ZM39.167,27.381C38.177,31.347 32.067,29.332 30.085,28.838L31.833,21.828C33.815,22.322 40.198,23.244 39.167,27.381Z" style="fill:white;fill-rule:nonzero;"/>
                    </g>
                </g>
            </g>
        </g>
    </g>
</svg>
