<svg xmlns="http://www.w3.org/2000/svg" xmlns:xlink="http://www.w3.org/1999/xlink" viewBox="0 0 30 30" fill="#FFFFFF">
  <path d="M6 4C4.895 4 4 4.895 4 6L4 24C4 25.105 4.895 26 6 26L10 26C11.105 26 12 25.105 12 24L12 6C12 4.895 11.105 4 10 4L6 4 z M 19.171875 7C18.660125 7 18.148312 7.1954375 17.757812 7.5859375L14 11.34375L14 22.65625L23.414062 13.242188C24.195062 12.461187 24.195062 11.195063 23.414062 10.414062L20.585938 7.5859375C20.195438 7.1954375 19.683625 7 19.171875 7 z M 21.484375 18L13.484375 26L24 26C25.105 26 26 25.105 26 24L26 20C26 18.895 25.105 18 24 18L21.484375 18 z M 8 22C8.552 22 9 22.448 9 23C9 23.552 8.552 24 8 24C7.448 24 7 23.552 7 23C7 22.448 7.448 22 8 22 z" fill="#FFFFFF" />
</svg>