<svg xmlns="http://www.w3.org/2000/svg" x="0px" y="0px"
width="30" height="30"
viewBox="0 0 226 226"
style=" fill:#000000;"><g transform="translate(-33.9,-33.9) scale(1.3,1.3)"><g fill="none" fill-rule="nonzero" stroke="none" stroke-width="1" stroke-linecap="butt" stroke-linejoin="miter" stroke-miterlimit="10" stroke-dasharray="" stroke-dashoffset="0" font-family="none" font-weight="none" font-size="none" text-anchor="none" style="mix-blend-mode: normal"><path d="M0,226v-226h226v226z" fill="none"></path><g fill="#191a1d"><path d="M45.2,30.13333c-8.32433,0 -15.06667,6.74233 -15.06667,15.06667v135.6c0,8.32433 6.74233,15.06667 15.06667,15.06667h30.13333c8.32433,0 15.06667,-6.74233 15.06667,-15.06667v-135.6c0,-8.32433 -6.74233,-15.06667 -15.06667,-15.06667zM144.42813,52.73333c-3.85518,0 -7.71084,1.4723 -10.65261,4.41406l-28.30885,28.30885v85.22083l70.91927,-70.91927c5.88353,-5.88354 5.88353,-15.42168 0,-21.30522l-21.3052,-21.3052c-2.94177,-2.94177 -6.79742,-4.41406 -10.65261,-4.41406zM161.84896,135.6l-60.26667,60.26667h79.21771c8.32433,0 15.06667,-6.74233 15.06667,-15.06667v-30.13333c0,-8.32433 -6.74233,-15.06667 -15.06667,-15.06667zM60.26667,165.73333c4.1584,0 7.53333,3.37493 7.53333,7.53333c0,4.1584 -3.37493,7.53333 -7.53333,7.53333c-4.1584,0 -7.53333,-3.37493 -7.53333,-7.53333c0,-4.1584 3.37493,-7.53333 7.53333,-7.53333z"></path></g></g></g></svg>