<svg xmlns="http://www.w3.org/2000/svg" x="0px" y="0px"
width="26" height="26"
viewBox="0 0 172 172"
style=" fill:#000000;"><g fill="none" fill-rule="nonzero" stroke="none" stroke-width="1" stroke-linecap="butt" stroke-linejoin="miter" stroke-miterlimit="10" stroke-dasharray="" stroke-dashoffset="0" font-family="none" font-weight="none" font-size="none" text-anchor="none" style="mix-blend-mode: normal"><path d="M0,172v-172h172v172z" fill="none"></path><g fill="#fcf9f9"><path d="M86,21.5c-35.56738,0 -64.5,28.93262 -64.5,64.5c0,35.56739 28.93262,64.5 64.5,64.5c35.56739,0 64.5,-28.93261 64.5,-64.5c0,-35.56738 -28.93261,-64.5 -64.5,-64.5zM86,32.25c29.75146,0 53.75,23.99854 53.75,53.75c0,29.75146 -23.99854,53.75 -53.75,53.75c-29.75146,0 -53.75,-23.99854 -53.75,-53.75c0,-29.75146 23.99854,-53.75 53.75,-53.75zM80.625,53.75v43.67188l-12.26172,-12.26172l-7.72656,7.55859l19.98828,19.98828v0.16797h0.16797l5.20703,5.20703l25.36328,-25.36328l-7.72656,-7.55859l-12.26172,12.26172v-43.67187z"></path></g></g></svg>