<svg xmlns="http://www.w3.org/2000/svg" xmlns:xlink="http://www.w3.org/1999/xlink" viewBox="0 0 24 24" fill="#051625">
  <path d="M11 2L11 12L7 12L12 17L17 12L13 12L13 2L11 2 z M 7.5722656 15.402344C5.1442656 15.868344 3 16.799 3 18.5C3 21.263 8.657 22 12 22C15.343 22 21 21.263 21 18.5C21 16.799 18.855734 15.868344 16.427734 15.402344L14.675781 17.152344C17.238781 17.454344 18.694609 18.136 18.974609 18.5C18.607609 18.976 16.246 20 12 20C7.754 20 5.3923906 18.976 5.0253906 18.5C5.3053906 18.136 6.7612187 17.454344 9.3242188 17.152344L7.5722656 15.402344 z" fill="#051625" />
</svg>