<svg xmlns="http://www.w3.org/2000/svg" x="0px" y="0px"
width="48" height="48"
viewBox="0 0 172 172"
style=" fill:#000000;"><g transform="translate(-25.8,-25.8) scale(1.3,1.3)"><g fill="none" fill-rule="nonzero" stroke="none" stroke-width="1" stroke-linecap="butt" stroke-linejoin="miter" stroke-miterlimit="10" stroke-dasharray="" stroke-dashoffset="0" font-family="none" font-weight="none" font-size="none" text-anchor="none" style="mix-blend-mode: normal"><path d="M0,172v-172h172v172z" fill="none"></path><g><path d="M21.5,154.08333v-35.83333h132.58333c1.978,0 3.58333,1.60533 3.58333,3.58333v28.66667c0,1.978 -1.60533,3.58333 -3.58333,3.58333z" fill="#d7dfe2"></path><path d="M118.8305,118.25h-14.09683l-60.69808,35.83333h14.09683z" fill="#b0bec5"></path><path d="M129,154.08333v-35.83333h25.08333c1.978,0 3.58333,1.60533 3.58333,3.58333v28.66667c0,1.978 -1.60533,3.58333 -3.58333,3.58333z" fill="#8c9eff"></path><path d="M121.83333,118.25l0,35.83333h-28.66667v-35.83333z" fill="#5c6bc0"></path><path d="M93.16667,133.40033l25.66383,-15.15033h-14.09683l-11.567,6.82983z" fill="#3f51b5"></path><path d="M86,118.25v35.83333h-28.66667v-35.83333z" fill="#303f9f"></path><path d="M86,129.30817l-28.66667,16.92408v7.85108h0.79908l27.86758,-16.45108z" fill="#283593"></path><path d="M150.00192,87.36525l-14.57342,-24.68558c-1.00692,-1.70567 -3.2035,-2.26825 -4.90917,-1.26492l-109.01933,64.36025v11.76767l9.76458,16.54067h12.771l104.70142,-61.8125c1.70567,-1.00333 2.27183,-3.2035 1.26492,-4.90558z" fill="#d7dfe2"></path><path d="M103.46875,77.38567l-12.72083,7.50708l-37.38492,63.68658l12.71725,-7.51067z" fill="#b0bec5"></path><path d="M127.13667,105.02392l-18.21767,-30.85608l21.60033,-12.75308c1.70567,-1.00692 3.90225,-0.44075 4.90917,1.26492l14.57342,24.68558c1.00692,1.70567 0.44075,3.90225 -1.26492,4.90917z" fill="#81c784"></path><path d="M102.75521,77.81004l18.2175,30.85694l-24.68555,14.574l-18.2175,-30.85694z" fill="#43a047"></path><path d="M71.89863,96.02589l18.2175,30.85694l-24.68555,14.574l-18.2175,-30.85694z" fill="#2e7d32"></path><path d="M71.89863,96.02589l18.2175,30.85694l-24.68555,14.574l-18.2175,-30.85694z" fill="#2e7d32"></path><path d="M112.8965,40.09033l-24.72142,-14.5125c-1.70567,-1.00333 -3.90225,-0.43 -4.90558,1.27567l-61.7695,105.221v12.25858l16.61233,9.75025h12.0185l64.04133,-109.08742c1.00333,-1.70925 0.43,-3.90225 -1.27567,-4.90558z" fill="#d7dfe2"></path><path d="M78.07008,106.49308l-16.598,28.2725l3.95242,6.69367l0.65575,-0.39058l16.15725,-27.52z" fill="#1b5e20"></path><path d="M102.985,78.20983l-0.2365,-0.40133l-12.00058,7.08425l-8.52833,14.53042l4.16742,7.05917z" fill="#388e3c"></path><path d="M101.47283,66.62492l-30.90267,-18.14242l12.69933,-21.63258c1.00333,-1.70567 3.19633,-2.279 4.90558,-1.27567l24.72142,14.5125c1.70567,1.00333 2.279,3.19633 1.27567,4.90558z" fill="#ffd740"></path><path d="M66.94237,54.66556l30.90167,18.14151l-14.51321,24.72134l-30.90167,-18.14151z" fill="#ffc400"></path><path d="M48.79814,85.56774l30.90167,18.14151l-14.51321,24.72134l-30.90167,-18.14151z" fill="#ff9800"></path><path d="M57.33333,154.08333h-35.83333v-132.58333c0,-1.978 1.60533,-3.58333 3.58333,-3.58333h28.66667c1.978,0 3.58333,1.60533 3.58333,3.58333z" fill="#d7dfe2"></path><path d="M57.33333,46.58333h-35.83333v-25.08333c0,-1.978 1.60533,-3.58333 3.58333,-3.58333h28.66667c1.978,0 3.58333,1.60533 3.58333,3.58333z" fill="#ff8a80"></path><path d="M21.5,53.75h35.83333v28.66667h-35.83333z" fill="#ff5252"></path><path d="M21.5,89.58333h35.83333v28.66667h-35.83333z" fill="#d50000"></path><path d="M39.41667,132.58333c-1.97902,0 -3.58333,1.60431 -3.58333,3.58333c0,1.97902 1.60431,3.58333 3.58333,3.58333c1.97902,0 3.58333,-1.60431 3.58333,-3.58333c0,-1.97902 -1.60431,-3.58333 -3.58333,-3.58333z" fill="#455a64"></path><path d="M57.33333,127.753v18.47925l8.09117,-4.773z" fill="#90a4ae"></path><path d="M57.33333,123.81492v17.99908l7.85825,-13.38375zM57.33333,82.26258v8.31333l7.16667,4.20683v-8.30975z" fill="#b0bec5"></path><path d="M57.33333,82.26258l7.16667,4.21042v-27.64542l-7.16667,12.20842z" fill="#ffab00"></path><path d="M57.33333,123.81492l7.16667,4.20683v-33.239l-7.16667,-4.20683z" fill="#f57c00"></path></g></g></g></svg>