<svg xmlns="http://www.w3.org/2000/svg" x="0px" y="0px"
width="50" height="50"
viewBox="0 0 172 172"
style=" fill:#000000;"><g fill="none" fill-rule="nonzero" stroke="none" stroke-width="1" stroke-linecap="butt" stroke-linejoin="miter" stroke-miterlimit="10" stroke-dasharray="" stroke-dashoffset="0" font-family="none" font-weight="none" font-size="none" text-anchor="none" style="mix-blend-mode: normal"><path d="M0,172v-172h172v172z" fill="none"></path><g fill="#ffffff"><path d="M34.4,22.93333c-6.33533,0 -11.46667,5.13133 -11.46667,11.46667v103.2c0,6.33533 5.13133,11.46667 11.46667,11.46667h22.93333c6.33533,0 11.46667,-5.13133 11.46667,-11.46667v-103.2c0,-6.33533 -5.13133,-11.46667 -11.46667,-11.46667zM109.91875,40.13333c-2.93403,0 -5.86843,1.12051 -8.10729,3.35938l-21.54479,21.54479v64.85833l53.97396,-53.97396c4.47773,-4.47774 4.47773,-11.73685 0,-16.21459l-16.21458,-16.21458c-2.23887,-2.23887 -5.17326,-3.35937 -8.10729,-3.35937zM123.17708,103.2l-45.86667,45.86667h60.28958c6.33533,0 11.46667,-5.13133 11.46667,-11.46667v-22.93333c0,-6.33533 -5.13133,-11.46667 -11.46667,-11.46667zM45.86667,126.13333c3.1648,0 5.73333,2.56853 5.73333,5.73333c0,3.1648 -2.56853,5.73333 -5.73333,5.73333c-3.1648,0 -5.73333,-2.56853 -5.73333,-5.73333c0,-3.1648 2.56853,-5.73333 5.73333,-5.73333z"></path></g></g></svg>