<svg xmlns="http://www.w3.org/2000/svg" x="0px" y="0px"
width="30" height="30"
viewBox="0 0 172 172"
style=" fill:#000000;"><g fill="none" fill-rule="nonzero" stroke="none" stroke-width="1" stroke-linecap="butt" stroke-linejoin="miter" stroke-miterlimit="10" stroke-dasharray="" stroke-dashoffset="0" font-family="none" font-weight="none" font-size="none" text-anchor="none" style="mix-blend-mode: normal"><path d="M0,172v-172h172v172z" fill="none"></path><g fill="#808080"><path d="M86,17.2c-34.83,0 -63.06667,28.23667 -63.06667,63.06667c0,21.20199 10.49485,39.91992 26.53906,51.35364l-17.44635,17.44636h-9.09271c-2.06765,-0.02924 -3.99087,1.05709 -5.03322,2.843c-1.04236,1.78592 -1.04236,3.99474 0,5.78066c1.04236,1.78592 2.96558,2.87225 5.03322,2.843h10.45885c0.62281,0.10357 1.25844,0.10357 1.88125,0h101.45312c0.63012,0.10607 1.27353,0.10607 1.90365,0h10.43646c2.06765,0.02924 3.99087,-1.05709 5.03322,-2.843c1.04236,-1.78592 1.04236,-3.99474 0,-5.78066c-1.04236,-1.78592 -2.96558,-2.87225 -5.03322,-2.843h-9.09271l-17.44635,-17.44636c16.04421,-11.43372 26.53906,-30.15166 26.53906,-51.35364c0,-34.83 -28.23667,-63.06667 -63.06667,-63.06667zM70.70364,34.4c0,0 43.88696,0.11556 45.6987,43.20156c11.3004,-4.37453 15.46433,-12.63125 15.46433,-12.63125c0,0 -0.11556,43.89243 -43.20156,45.7099c4.37453,11.3004 12.63125,15.45312 12.63125,15.45312c0,0 -43.88696,-0.11556 -45.6987,-43.20156c-11.3004,4.37453 -15.46432,12.63125 -15.46432,12.63125c0,0 0.11556,-43.88697 43.20156,-45.6987c-4.37453,-11.30613 -12.63125,-15.46432 -12.63125,-15.46432zM59.75208,137.55521c7.99991,3.67202 16.86937,5.77812 26.24792,5.77812c9.37855,0 18.24801,-2.10611 26.24792,-5.77812l11.51146,11.51146h-75.51875z"></path></g></g></svg>