<svg xmlns="http://www.w3.org/2000/svg" xmlns:xlink="http://www.w3.org/1999/xlink" viewBox="0 0 26 26" fill="#191A1D">
  <path d="M9.875 0C9.730469 0.0234375 9.589844 0.0742188 9.46875 0.15625C9.46875 0.15625 8.203125 0.953125 6.84375 1.8125C5.484375 2.671875 3.96875 3.621094 3.625 3.8125C3.605469 3.820313 3.582031 3.832031 3.5625 3.84375C2.304688 4.617188 2.042969 5.882813 2 6.59375C1.996094 6.625 2 6.652344 2 6.6875C1.988281 6.953125 2 7.125 2 7.125L2 20.1875C2 22.085938 4.210938 23 6.3125 23C7.011719 23 7.710938 22.886719 8.3125 22.6875C8.710938 22.488281 9 22.085938 9 21.6875L9 11.1875C9 8.886719 9.5 7.804688 11 6.90625C11.398438 6.707031 15.59375 3.8125 15.59375 3.8125C15.792969 3.613281 16 3.207031 16 2.90625L16 2.8125C16 2.414063 15.800781 2.105469 15.5 1.90625C15.199219 1.707031 14.800781 1.707031 14.5 1.90625C14.398438 2.007813 8.300781 6.113281 7 6.8125C5.699219 7.613281 4.488281 7.804688 4.1875 7.40625C4.09375 7.3125 4.011719 7.027344 4 6.75C4 6.742188 4 6.726563 4 6.71875C4 6.707031 4 6.699219 4 6.6875C4 6.414063 4.070313 5.902344 4.625 5.5625C5.1875 5.25 6.582031 4.359375 7.9375 3.5C8.511719 3.136719 8.582031 3.097656 9.03125 2.8125C9.15625 3.316406 9.644531 3.644531 10.160156 3.5625C10.671875 3.480469 11.039063 3.019531 11 2.5L11 1C11.003906 0.710938 10.878906 0.4375 10.664063 0.246094C10.449219 0.0546875 10.160156 -0.0351563 9.875 0 Z M 17.875 3.5C17.714844 3.527344 17.566406 3.589844 17.4375 3.6875C17.4375 3.6875 12.402344 7.074219 11.53125 7.65625C11.519531 7.667969 11.511719 7.675781 11.5 7.6875C10.777344 8.230469 10.347656 8.875 10.15625 9.46875C10.019531 9.886719 10 10.230469 10 10.5C10 10.613281 10 10.742188 10 10.8125C10 10.84375 10 10.875 10 10.90625L10 23C10 24.898438 12.1875 26 14.1875 26C15.085938 26 15.898438 25.804688 16.5 25.40625C17.699219 24.707031 23.5 20.1875 23.5 20.1875C23.800781 19.988281 24 19.707031 24 19.40625L24 6.40625C24 5.90625 23.804688 5.605469 23.40625 5.40625C23.105469 5.207031 22.613281 5.300781 22.3125 5.5C20.710938 6.699219 16.40625 10.085938 15.40625 10.6875C14.007813 11.488281 12.6875 11.6875 12.1875 11.1875C11.988281 10.988281 12 10.800781 12 10.5C12.007813 10.328125 12.023438 10.179688 12.0625 10.0625C12.117188 9.886719 12.234375 9.671875 12.65625 9.34375C12.675781 9.328125 12.667969 9.328125 12.6875 9.3125C13.410156 8.832031 15.621094 7.324219 17.0625 6.34375C17.230469 6.796875 17.699219 7.0625 18.175781 6.980469C18.648438 6.894531 18.996094 6.484375 19 6L19 4.5C19.003906 4.210938 18.878906 3.9375 18.664063 3.746094C18.449219 3.554688 18.160156 3.464844 17.875 3.5 Z M 22 10.8125L22 12.8125L17 16.6875L17 14.6875Z" fill="#191A1D" />
</svg>