<!-- <svg xmlns="http://www.w3.org/2000/svg" xmlns:xlink="http://www.w3.org/1999/xlink" viewBox="0 0 24 24" fill="#051625">
  <path d="M19,3H5C3.895,3,3,3.895,3,5v6h8.586L9.293,8.707l1.414-1.414L15.414,12l-4.707,4.707l-1.414-1.414L11.586,13H3v6 c0,1.105,0.895,2,2,2h14c1.105,0,2-0.895,2-2V5C21,3.895,20.105,3,19,3z" fill="#051625" />
</svg> -->

<svg xmlns="http://www.w3.org/2000/svg" xmlns:xlink="http://www.w3.org/1999/xlink" viewBox="0 0 24 24" fill="#F6FBFF">
  <path d="M19,3H5C3.895,3,3,3.895,3,5v6h8.586L9.293,8.707l1.414-1.414L15.414,12l-4.707,4.707l-1.414-1.414L11.586,13H3v6 c0,1.105,0.895,2,2,2h14c1.105,0,2-0.895,2-2V5C21,3.895,20.105,3,19,3z" fill="#F6FBFF" />
</svg>